<?xml version="1.0" encoding="utf-8"?>
<!-- Generator: Adobe Illustrator 19.0.0, SVG Export Plug-In . SVG Version: 6.00 Build 0)  -->
<svg version="1.1" id="Layer_1" xmlns="http://www.w3.org/2000/svg" xmlns:xlink="http://www.w3.org/1999/xlink" x="0px" y="0px"
	 viewBox="0 0 96 96" style="enable-background:new 0 0 96 96;" xml:space="preserve">
<style type="text/css">
	.st0{fill:#ECF0F1;}
	.st1{fill:#BDC3C7;}
	.st2{fill:#27AE60;}
	.st3{fill:#2ECC71;}
	.st4{fill:#C0392B;}
	.st5{fill:#F39C12;}
	.st6{fill:#2980B9;}
	.st7{fill:#F1C40F;}
	.st8{fill:#3498DB;}
	.st9{fill:#E74C3C;}
</style>
<g id="XMLID_1_">
	<polygon id="XMLID_3_" class="st0" points="36.2,21.4 59.8,24.4 59.8,80.5 36.2,77.5 	"/>
	<polygon id="XMLID_4_" class="st1" points="18.5,24.4 36.2,21.4 36.2,77.5 18.5,80.5 	"/>
	<polygon id="XMLID_5_" class="st1" points="59.8,24.4 77.5,21.4 77.5,77.5 59.8,80.5 	"/>
	<polygon id="XMLID_6_" class="st2" points="21.4,27.3 36.2,24.4 36.2,74.6 21.4,77.5 	"/>
	<polygon id="XMLID_7_" class="st3" points="36.2,24.4 59.8,27.3 59.8,77.5 36.2,74.6 	"/>
	<path id="XMLID_10_" class="st4" d="M51,18.5c-4.9,0-8.9,4-8.9,8.9s4,8.9,8.9,8.9s8.9-4,8.9-8.9S55.9,18.5,51,18.5z M51,24.4
		c1.6,0,3,1.3,3,3s-1.3,3-3,3c-1.6,0-3-1.3-3-3S49.3,24.4,51,24.4z"/>
	<polygon id="XMLID_11_" class="st2" points="74.6,74.6 59.8,77.5 59.8,27.3 74.6,24.4 	"/>
	<polygon id="XMLID_12_" class="st5" points="29.3,25.5 22.5,27 36.2,41.5 36.2,32.9 	"/>
	<polygon id="XMLID_13_" class="st5" points="74.6,68.7 59.8,71.6 59.8,53.9 74.6,45 	"/>
	<polygon id="XMLID_14_" class="st6" points="74.6,74.6 59.8,77.5 59.8,59.8 74.6,51 	"/>
	<polygon id="XMLID_15_" class="st7" points="36.2,56.9 59.8,53.9 59.8,71.6 36.2,68.7 	"/>
	<polygon id="XMLID_16_" class="st8" points="36.2,62.8 59.8,59.8 59.8,77.5 36.2,74.6 	"/>
	<polygon id="XMLID_17_" class="st5" points="21.4,65.7 36.2,56.9 36.2,68.7 21.4,71.6 	"/>
	<polygon id="XMLID_18_" class="st6" points="21.4,71.6 36.2,62.8 36.2,74.6 21.4,77.5 	"/>
	<polygon id="XMLID_19_" class="st7" points="36.2,41.5 36.2,32.9 48,58.5 43.7,58.5 	"/>
	<path id="XMLID_22_" class="st9" d="M51,15.5c-6.5,0-11.8,5.3-11.8,11.8c0,2.1,0.6,3.8,1.5,5.6c0.2,0.3,0.3,0.6,0.5,0.9L51,51
		l9.8-17.1c0.2-0.3,0.3-0.6,0.4-0.6l0.1-0.3c1-1.8,1.5-3.5,1.5-5.6C62.8,20.8,57.5,15.5,51,15.5L51,15.5z M51,21.4
		c3.3,0,5.9,2.7,5.9,5.9s-2.6,5.9-5.9,5.9c-3.3,0-5.9-2.7-5.9-5.9S47.7,21.4,51,21.4z"/>
</g>
</svg>
